<svg xmlns="http://www.w3.org/2000/svg" width="16" height="14" viewBox="0 0 16 14">
  <g fill="#666" fill-rule="evenodd">
    <path d="M-0.0002,6.0004 L-0.0002,6.2764 L-0.0002,6.0004 Z M15.9998,6.0004 L15.9998,6.2764 L15.9998,6.0004 Z M14.4958,0.0004 L1.5038,0.0004 C0.6768,0.0004 -0.0002,0.6774 -0.0002,1.5034 L-0.0002,6.0004 C-0.0002,10.4184 3.5818,14.0004 7.9998,14.0004 C12.4188,14.0004 15.9998,10.4184 15.9998,6.0004 L15.9998,1.5034 C15.9998,0.6774 15.3228,0.0004 14.4958,0.0004 Z M13.9998,2.0004 L13.9998,6.0004 C13.9998,9.3084 11.3088,12.0004 7.9998,12.0004 C4.6908,12.0004 1.9998,9.3084 1.9998,6.0004 L1.9998,2.0004 L13.9998,2.0004 Z"/>
    <path d="M8.0115,9.7748 C7.7435,9.7748 7.4875,9.6678 7.2995,9.4768 L3.9555,6.0868 C3.5685,5.6928 3.5725,5.0598 3.9655,4.6718 C4.3575,4.2848 4.9915,4.2888 5.3795,4.6818 L8.0115,7.3508 L10.6425,4.6818 C11.0305,4.2888 11.6615,4.2848 12.0565,4.6718 C12.4495,5.0598 12.4535,5.6928 12.0665,6.0868 L8.7235,9.4768 C8.5355,9.6678 8.2795,9.7748 8.0115,9.7748"/>
  </g>
</svg>
